<?xml version="1.0" encoding="UTF-8"?>
<svg width="200" height="60" viewBox="0 0 200 60" fill="none" xmlns="http://www.w3.org/2000/svg">
  <!-- Brain icon -->
  <g transform="translate(0, 5) scale(0.9)">
    <path d="M25 50C38.8071 50 50 38.8071 50 25C50 11.1929 38.8071 0 25 0C11.1929 0 0 11.1929 0 25C0 38.8071 11.1929 50 25 50Z" fill="#d6e7f0"/>
    <path d="M25 45C36.0457 45 45 36.0457 45 25C45 13.9543 36.0457 5 25 5C13.9543 5 5 13.9543 5 25C5 36.0457 13.9543 45 25 45Z" fill="#5b87a5"/>
    <!-- Brain paths -->
    <path d="M33 18C35.2091 18 37 16.2091 37 14C37 11.7909 35.2091 10 33 10C30.7909 10 29 11.7909 29 14" stroke="white" stroke-width="2" stroke-linecap="round"/>
    <path d="M17 18C14.7909 18 13 16.2091 13 14C13 11.7909 14.7909 10 17 10C19.2091 10 21 11.7909 21 14" stroke="white" stroke-width="2" stroke-linecap="round"/>
    <path d="M13 25C10.7909 25 9 23.2091 9 21C9 18.7909 10.7909 17 13 17C15.2091 17 17 18.7909 17 21" stroke="white" stroke-width="2" stroke-linecap="round"/>
    <path d="M37 25C39.2091 25 41 23.2091 41 21C41 18.7909 39.2091 17 37 17C34.7909 17 33 18.7909 33 21" stroke="white" stroke-width="2" stroke-linecap="round"/>
    <path d="M13 33C10.7909 33 9 31.2091 9 29C9 26.7909 10.7909 25 13 25C15.2091 25 17 26.7909 17 29" stroke="white" stroke-width="2" stroke-linecap="round"/>
    <path d="M37 33C39.2091 33 41 31.2091 41 29C41 26.7909 39.2091 25 37 25C34.7909 25 33 26.7909 33 29" stroke="white" stroke-width="2" stroke-linecap="round"/>
    <path d="M17 40C14.7909 40 13 38.2091 13 36C13 33.7909 14.7909 32 17 32C19.2091 32 21 33.7909 21 36" stroke="white" stroke-width="2" stroke-linecap="round"/>
    <path d="M33 40C35.2091 40 37 38.2091 37 36C37 33.7909 35.2091 32 33 32C30.7909 32 29 33.7909 29 36" stroke="white" stroke-width="2" stroke-linecap="round"/>
    <path d="M25 14V40" stroke="white" stroke-width="2" stroke-linecap="round"/>
    <path d="M21 14H29" stroke="white" stroke-width="2" stroke-linecap="round"/>
    <path d="M17 21H33" stroke="white" stroke-width="2" stroke-linecap="round"/>
    <path d="M17 29H33" stroke="white" stroke-width="2" stroke-linecap="round"/>
    <path d="M21 36H29" stroke="white" stroke-width="2" stroke-linecap="round"/>
    <!-- Wave pattern representing sound/speech -->
    <path d="M28 40C32 42 34 44 34 44" stroke="#82b88a" stroke-width="2" stroke-linecap="round"/>
    <path d="M30 38C36 42 40 46 40 46" stroke="#82b88a" stroke-width="2" stroke-linecap="round"/>
  </g>
  
  <!-- Text "Fahamu" -->
  <g transform="translate(60, 37)">
    <text font-family="Poppins, sans-serif" font-size="28" font-weight="600" fill="#5b87a5">
      Fahamu
    </text>
  </g>
  
  <!-- Tagline -->
  <g transform="translate(64, 50)">
    <text font-family="Raleway, sans-serif" font-size="10" font-weight="400" fill="#82b88a">
      Finding healing one talk at a time
    </text>
  </g>
</svg>