<?xml version="1.0" encoding="UTF-8"?>
<svg width="160" height="50" viewBox="0 0 160 50" fill="none" xmlns="http://www.w3.org/2000/svg">
  <!-- Main logo shape - a stylized brain with a speech bubble -->
  <g id="brain">
    <path d="M25 5C21.5 5 18.25 6.5 16 9C13.75 6.5 10.5 5 7 5C3.5 5 0.5 6.75 0.5 11C0.5 12.75 1.25 14.25 2.25 15.5C1.25 16.75 0.5 18.25 0.5 20C0.5 23 2.25 25.25 4.75 26C4.25 26.75 4 27.75 4 28.75C4 32 6.75 34.5 10 34.5C11.25 34.5 12.25 34.25 13.25 33.75C14 37 16.75 39.5 20 39.5C23.25 39.5 26 37 26.75 33.75C27.75 34.25 28.75 34.5 30 34.5C33.25 34.5 36 32 36 28.75C36 27.75 35.75 26.75 35.25 26C37.75 25.25 39.5 23 39.5 20C39.5 18.25 38.75 16.75 37.75 15.5C38.75 14.25 39.5 12.75 39.5 11C39.5 6.75 36.5 5 33 5C29.5 5 26.25 6.5 24 9" fill="#5b87a5"/>
    <path d="M25 5C21.5 5 18.25 6.5 16 9C13.75 6.5 10.5 5 7 5C3.5 5 0.5 6.75 0.5 11C0.5 12.75 1.25 14.25 2.25 15.5C1.25 16.75 0.5 18.25 0.5 20C0.5 23 2.25 25.25 4.75 26C4.25 26.75 4 27.75 4 28.75C4 32 6.75 34.5 10 34.5C11.25 34.5 12.25 34.25 13.25 33.75C14 37 16.75 39.5 20 39.5C23.25 39.5 26 37 26.75 33.75C27.75 34.25 28.75 34.5 30 34.5C33.25 34.5 36 32 36 28.75C36 27.75 35.75 26.75 35.25 26C37.75 25.25 39.5 23 39.5 20C39.5 18.25 38.75 16.75 37.75 15.5C38.75 14.25 39.5 12.75 39.5 11C39.5 6.75 36.5 5 33 5C29.5 5 26.25 6.5 24 9" stroke="#3a5e7e" stroke-width="1.5"/>
  </g>
  
  <!-- Speech bubble -->
  <path d="M34 16C34 16 39 18 39 22C39 26 34 28 34 28" stroke="#82b88a" stroke-width="2" stroke-linecap="round"/>
  
  <!-- Text "Fahamu" -->
  <text x="50" y="26" font-family="Montserrat, sans-serif" font-weight="700" font-size="22" fill="#3a5e7e">Fahamu</text>
  
  <!-- Tagline -->
  <text x="50" y="40" font-family="Open Sans, sans-serif" font-size="11" fill="#5b87a5">Finding healing one talk at a time</text>
  
  <!-- Decorative elements - sound waves -->
  <g id="sound-waves" stroke="#82b88a" stroke-width="1.5" stroke-linecap="round">
    <path d="M44 18C44 18 46 19 46 22C46 25 44 26 44 26" />
    <path d="M48 16C48 16 51 18 51 22C51 26 48 28 48 28" />
  </g>
</svg>